<svg width="184" height="372" viewBox="0 0 184 372" fill="none" xmlns="http://www.w3.org/2000/svg">
<g clip-path="url(#clip0_4_7)">
<path d="M92.0117 3.29815e-05C90.3373 -0.00392859 88.6812 0.349037 87.1539 1.03539C85.6266 1.72175 84.2633 2.72573 83.1547 3.9804C82.0461 5.23507 81.2177 6.7116 80.7249 8.31155C80.232 9.91151 80.086 11.5981 80.2965 13.259C80.4806 14.6878 80.9287 16.0699 81.6179 17.335C81.8546 17.7807 82.1191 18.211 82.4099 18.6234C84.0306 20.8805 86.3957 22.4937 89.0888 23.1793C91.7819 23.8648 94.6306 23.5788 97.1336 22.3716C97.5344 22.1811 97.9226 21.9651 98.2958 21.725C100.442 20.3559 102.087 18.3292 102.986 15.9477C103.884 13.5662 103.987 10.958 103.28 8.51291C102.573 6.06785 101.093 3.91734 99.0619 2.3829C97.0308 0.84845 94.5575 0.0125007 92.0117 3.29815e-05ZM92.0117 10.0215C91.312 10.0215 90.6279 9.81408 90.0461 9.4254C89.4643 9.03672 89.0108 8.48427 88.743 7.83792C88.4752 7.19157 88.4052 6.48034 88.5417 5.79417C88.6782 5.10801 89.0151 4.47772 89.5099 3.98303C90.0047 3.48833 90.6352 3.15144 91.3215 3.01495C92.0078 2.87847 92.7191 2.94852 93.3656 3.21625C94.0121 3.48397 94.5647 3.93735 94.9535 4.51906C95.3422 5.10076 95.5497 5.78465 95.5497 6.48426C95.5497 7.42241 95.1769 8.32213 94.5134 8.98549C93.8499 9.64886 92.95 10.0215 92.0117 10.0215Z" fill="#EEEFF0"/>
<path opacity="0.1" d="M82.5785 5.3036L82.4099 18.6422C82.1184 18.2237 81.8539 17.7871 81.6179 17.335L82.5785 5.3036Z" fill="black"/>
<path opacity="0.1" d="M98.4973 5.3036L98.2958 21.7672C97.9226 22.0073 97.5344 22.2233 97.1336 22.4137L98.4973 5.3036Z" fill="black"/>
<path opacity="0.1" d="M103.727 13.259C103.366 16.1068 101.978 18.725 99.8237 20.6229C97.6696 22.5207 94.8969 23.5678 92.0257 23.5678C89.1545 23.5678 86.3819 22.5207 84.2278 20.6229C82.0736 18.725 80.6858 16.1068 80.3246 13.259C83.979 11.5162 87.9768 10.6118 92.0257 10.6118C96.0747 10.6118 100.072 11.5162 103.727 13.259Z" fill="black"/>
<path d="M119.135 38.9101C119.135 40.9195 118.914 42.9228 118.474 44.8836C117.677 48.4299 116.167 51.7771 114.036 54.7224C113.318 55.7097 112.535 56.6487 111.693 57.5335C107.996 61.4395 103.22 64.1567 97.9724 65.3389C97.0283 65.5523 96.0721 65.7088 95.1092 65.8075C94.0768 65.9324 93.0376 65.9935 91.9976 65.9902C88.5994 65.9936 85.2309 65.3578 82.0678 64.1161C81.1625 63.7649 80.2785 63.3613 79.4201 62.9074C73.2857 59.69 68.6098 54.2543 66.3459 47.7088C66.0205 46.7711 65.7498 45.8152 65.5352 44.8462C65.3665 44.1012 65.2306 43.3469 65.1275 42.5786C64.9602 41.3503 64.8756 40.1122 64.8745 38.8726C64.8723 36.1881 65.2687 33.5182 66.0507 30.95C66.2053 30.43 66.3834 29.9193 66.5708 29.4086C68.3094 24.7487 71.296 20.6565 75.2042 17.5794C79.1124 14.5024 83.7915 12.5589 88.7301 11.9616C93.6686 11.3643 98.6763 12.1362 103.206 14.1928C107.735 16.2493 111.611 19.5115 114.411 23.6225C117.495 28.124 119.142 33.4541 119.135 38.9101Z" fill="#EEEFF0"/>
<path opacity="0.1" d="M66.5849 29.4461L66.3599 47.7462C66.0345 46.8085 65.7639 45.8527 65.5493 44.8836C65.3806 44.1387 65.2447 43.3844 65.1416 42.616L66.0788 30.9875C66.2381 30.4534 66.3975 29.9568 66.5849 29.4461Z" fill="black"/>
<path opacity="0.1" d="M82.5785 23.5803L82.0818 64.1536C81.1766 63.8023 80.2925 63.3987 79.4342 62.9448L82.5785 23.5803Z" fill="black"/>
<path opacity="0.1" d="M98.4973 23.5803L97.9865 65.367C97.0423 65.5804 96.0862 65.7369 95.1233 65.8356L98.4973 23.5803Z" fill="black"/>
<path opacity="0.1" d="M114.421 23.5803V23.6272L114.036 54.7458C113.318 55.7331 112.535 56.6721 111.693 57.5569L114.397 23.6178L114.421 23.5803Z" fill="black"/>
<path opacity="0.1" d="M118.474 44.8836C117.119 50.8884 113.761 56.2536 108.952 60.0975C104.143 63.9415 98.1687 66.0355 92.0117 66.0355C85.8547 66.0355 79.8808 63.9415 75.0717 60.0975C70.2627 56.2536 66.9046 50.8884 65.5493 44.8836C73.5808 40.1983 82.7129 37.7294 92.0117 37.7294C101.31 37.7294 110.443 40.1983 118.474 44.8836Z" fill="black"/>
<path d="M144.496 91.3602C144.517 104.066 139.906 116.343 131.525 125.894C130.419 127.15 129.266 128.354 128.052 129.497C121.84 135.384 114.277 139.655 106.028 141.936C104.674 142.32 103.286 142.639 101.89 142.897C94.8681 144.235 87.6472 144.131 80.6666 142.592C79.2983 142.297 77.9487 141.936 76.6225 141.529C68.663 139.084 61.4016 134.776 55.4413 128.963C54.3214 127.89 53.2529 126.752 52.2407 125.566C33.3265 103.606 61.3996 62.5581 57.7644 51.5634C54.1292 40.5686 112.868 35.1255 131.783 57.0859C139.992 66.6178 144.504 78.7812 144.496 91.3602Z" fill="#F50057"/>
<path opacity="0.1" d="M55.4225 128.982L56.0364 63.0807L52.2219 125.585L55.4225 128.982Z" fill="black"/>
<path opacity="0.1" d="M81.393 63.0807L80.6479 142.611C79.2796 142.316 77.93 141.955 76.6038 141.547L81.393 63.0807Z" fill="black"/>
<path opacity="0.1" d="M106.749 63.0807L106.009 141.96C104.655 142.344 103.268 142.662 101.871 142.92L106.749 63.0807Z" fill="black"/>
<path opacity="0.1" d="M131.52 125.913L132.101 63.0807L128.043 129.516L131.52 125.913Z" fill="black"/>
<path d="M92.0117 106.118C140.795 108.315 177.068 125.728 173.386 188.947C170.726 234.614 136.953 271.775 92.0117 271.775C47.07 271.775 13.2886 234.615 10.6375 188.947C6.52188 118.049 46.2813 104.059 92.0117 106.118Z" fill="#EEEFF0"/>
<path opacity="0.1" d="M32.4559 147.975L24.7895 244.072H31.2797L32.4559 147.975Z" fill="black"/>
<path opacity="0.1" d="M43.6557 147.975L35.9893 244.072H42.4795L43.6557 147.975Z" fill="black"/>
<path opacity="0.1" d="M144.491 147.975L136.825 244.072H143.315L144.491 147.975Z" fill="black"/>
<path opacity="0.1" d="M155.691 147.975L148.025 244.072H154.515L155.691 147.975Z" fill="black"/>
<path opacity="0.1" d="M165.963 223.556C153.09 252.023 124.814 271.78 92.0117 271.78C59.209 271.78 30.933 252.023 18.0603 223.556C48.288 182.722 105.902 174.119 146.744 204.341C154.066 209.759 160.544 216.235 165.963 223.556Z" fill="black"/>
<path d="M184 280.031C184.038 302.906 175.513 324.967 160.101 341.874C158.429 343.727 156.677 345.507 154.843 347.215C148.764 352.906 141.942 357.746 134.561 361.603C132.565 362.653 130.522 363.627 128.432 364.527C122.234 367.201 115.759 369.179 109.125 370.426C106.988 370.828 104.83 371.155 102.649 371.405C99.1178 371.809 95.566 372.008 92.0117 372C89.2281 372 86.479 371.878 83.7641 371.634C81.5992 371.438 79.4529 371.166 77.3348 370.833C70.8757 369.8 64.5471 368.072 58.4592 365.679C56.4223 364.896 54.4198 364.035 52.4516 363.098C45.5599 359.815 39.1056 355.683 33.2386 350.799C31.4704 349.338 29.7631 347.809 28.1167 346.213C19.2111 337.649 12.1296 327.373 7.29774 316.003C2.46592 304.633 -0.0163824 292.403 5.8246e-05 280.049C5.8246e-05 277.266 0.121896 274.516 0.365574 271.799C2.67377 193.281 45.174 185.557 91.9882 188.08C144.129 190.89 183.637 187.077 183.611 271.799C183.867 274.504 183.997 277.248 184 280.031Z" fill="#F50057"/>
<path opacity="0.1" d="M34.218 246.438L33.248 350.781C31.4797 349.319 29.7724 347.79 28.1261 346.194L34.218 246.438Z" fill="black"/>
<path opacity="0.1" d="M59.5745 246.438L58.4592 365.684C56.4223 364.897 54.4198 364.035 52.4516 363.098L59.5745 246.438Z" fill="black"/>
<path opacity="0.1" d="M83.7594 371.634L84.9309 246.429L77.3347 370.833L83.7594 371.634Z" fill="black"/>
<path opacity="0.1" d="M109.13 370.407L110.283 246.429L102.654 371.386L109.13 370.407Z" fill="black"/>
<path opacity="0.1" d="M135.639 246.438L134.566 361.594C132.57 362.644 130.527 363.618 128.437 364.518L135.639 246.438Z" fill="black"/>
<path opacity="0.1" d="M160.996 246.438L160.105 341.865C158.434 343.717 156.681 345.498 154.848 347.206L160.996 246.438Z" fill="black"/>
<path opacity="0.1" d="M141.544 140.901C141.544 167.606 119.369 189.242 92.0117 189.242C64.6542 189.242 42.4796 167.601 42.4796 140.901C42.4782 136.481 43.0949 132.083 44.3119 127.834C49.1854 110.841 63.3374 97.6289 81.1071 93.7355C88.2923 92.1675 95.7311 92.1675 102.916 93.7355C120.686 97.6289 134.838 110.841 139.712 127.834C140.929 132.083 141.545 136.481 141.544 140.901Z" fill="black"/>
<path d="M140.363 139.72C140.348 151.947 135.692 163.712 127.335 172.638C118.978 181.565 107.544 186.987 95.3421 187.809C83.1406 188.632 71.0818 184.793 61.6023 177.068C52.1229 169.344 45.9295 158.31 44.2737 146.196C42.6179 134.082 45.6231 121.791 52.682 111.807C59.741 101.823 70.3275 94.8896 82.3023 92.4087C94.277 89.9278 106.747 92.0839 117.193 98.4414C127.639 104.799 135.282 114.884 138.577 126.658C139.767 130.91 140.368 135.305 140.363 139.72Z" fill="#FFAB9E"/>
<path d="M46.608 91.3789C76.7005 63.4739 106.969 63.3565 137.415 91.3789C139.292 91.3789 141.092 92.1243 142.419 93.451C143.746 94.7778 144.491 96.5772 144.491 98.4535V118.496C144.491 120.373 143.746 122.172 142.419 123.499C141.092 124.826 139.292 125.571 137.415 125.571C107.76 111.711 77.5859 109.564 46.608 125.571C45.6788 125.571 44.7587 125.388 43.9002 125.033C43.0417 124.677 42.2616 124.156 41.6045 123.499C40.9475 122.842 40.4263 122.062 40.0707 121.204C39.7151 120.345 39.532 119.426 39.532 118.496V98.4535C39.532 96.5772 40.2775 94.7778 41.6045 93.451C42.9316 92.1243 44.7314 91.3789 46.608 91.3789Z" fill="#EEEFF0"/>
<path opacity="0.1" d="M184 278.855C184.006 285.999 183.181 293.12 181.54 300.074H2.50712C0.866018 293.12 0.0403897 285.999 0.0469134 278.855C0.0469134 276.072 0.168766 273.32 0.412443 270.599H183.639C183.876 273.317 183.997 276.069 184 278.855Z" fill="black"/>
<path opacity="0.1" d="M184 281.211C184.006 288.357 183.18 295.48 181.54 302.435H2.50713C0.8663 295.48 0.0406782 288.357 0.0469254 281.211C0.0469254 278.428 0.168778 275.676 0.412455 272.956H183.639C183.876 275.673 183.997 278.425 184 281.211Z" fill="black"/>
<path d="M184 280.031C184.006 287.177 183.181 294.299 181.54 301.254H2.50712C0.865997 294.299 0.0403715 287.177 0.0469136 280.031C0.0469136 277.248 0.168766 274.497 0.412443 271.78C63.9525 260.106 126.26 254.272 183.639 271.78C183.876 274.497 183.997 277.248 184 280.031Z" fill="#373E46"/>
<path opacity="0.1" d="M92.0117 307.148C103.41 307.148 112.649 297.91 112.649 286.515C112.649 275.119 103.41 265.881 92.0117 265.881C80.6139 265.881 71.3741 275.119 71.3741 286.515C71.3741 297.91 80.6139 307.148 92.0117 307.148Z" fill="black"/>
<path d="M92.0117 305.967C102.757 305.967 111.468 297.258 111.468 286.515C111.468 275.771 102.757 267.062 92.0117 267.062C81.2661 267.062 72.555 275.771 72.555 286.515C72.555 297.258 81.2661 305.967 92.0117 305.967Z" fill="#EEEFF0"/>
<path d="M92.0117 301.845C100.48 301.845 107.345 294.981 107.345 286.515C107.345 278.048 100.48 271.185 92.0117 271.185C83.5435 271.185 76.6788 278.048 76.6788 286.515C76.6788 294.981 83.5435 301.845 92.0117 301.845Z" fill="#373E46"/>
<path d="M151.567 206.338C151.567 221.635 143.142 227.679 132.054 233.446C130.85 234.069 129.618 234.694 128.357 235.32C124.407 237.302 120.222 239.359 116.028 241.856C114.585 242.718 113.137 243.627 111.698 244.606C107.383 247.507 103.438 250.922 99.95 254.778C97.9191 257.038 96.0613 259.449 94.3923 261.988L94.3876 261.997C93.5722 263.234 92.7802 264.518 92.0117 265.881C71.3741 302.435 32.456 239.223 32.456 206.338C32.456 190.546 38.7306 175.401 49.8995 164.235C61.0683 153.068 76.2166 146.795 92.0117 146.795C107.807 146.795 122.955 153.068 134.124 164.235C145.293 175.401 151.567 190.546 151.567 206.338V206.338Z" fill="#EEEFF0"/>
<path d="M101.729 169.854C101.729 171.675 97.378 175.396 92.0117 175.396C86.6454 175.396 82.2943 171.675 82.2943 169.854C82.2943 168.033 86.6454 168.795 92.0117 168.795C97.378 168.795 101.729 168.031 101.729 169.854Z" fill="#FFAB9E"/>
<path opacity="0.1" d="M53.0889 180.987L52.2407 250.655C50.7111 249.285 49.2534 247.837 47.8733 246.316L53.0889 180.987Z" fill="black"/>
<path opacity="0.1" d="M69.0076 180.987L68.0376 260.854C66.2621 260.082 64.529 259.215 62.8454 258.259L69.0076 180.987Z" fill="black"/>
<path opacity="0.1" d="M84.931 180.987L83.9001 265.319C82.0092 265.066 80.1323 264.717 78.2767 264.274L84.931 180.987Z" fill="black"/>
<path opacity="0.1" d="M100.85 180.987L99.9499 254.778C97.9191 257.038 96.0612 259.449 94.3922 261.988L100.85 180.987Z" fill="black"/>
<path opacity="0.1" d="M116.773 180.987L116.028 241.856C114.585 242.718 113.137 243.627 111.698 244.606L116.773 180.987Z" fill="black"/>
<path opacity="0.1" d="M132.692 180.987L132.054 233.446C130.85 234.069 129.618 234.694 128.357 235.32L132.692 180.987Z" fill="black"/>
<path opacity="0.1" d="M54.6681 113.858L56.0364 91.4585L55.8302 113.858H54.6681Z" fill="black"/>
<path opacity="0.1" d="M81.182 113.858L81.3929 91.4585L80.0246 113.858H81.182Z" fill="black"/>
<path opacity="0.1" d="M106.745 91.4585L106.534 113.858H105.376L106.745 91.4585Z" fill="black"/>
<path opacity="0.1" d="M130.733 113.858L132.101 91.4585L131.895 113.858H130.733Z" fill="black"/>
<g filter="url(#filter0_d_4_7)">
<path d="M92.0961 165.721C101.557 165.721 109.227 158.053 109.227 148.594C109.227 139.135 101.557 131.467 92.0961 131.467C82.635 131.467 74.9653 139.135 74.9653 148.594C74.9653 158.053 82.635 165.721 92.0961 165.721Z" fill="#FFAB9E"/>
</g>
</g>
<defs>
<filter id="filter0_d_4_7" x="70.9653" y="125.467" width="42.2616" height="42.2545" filterUnits="userSpaceOnUse" color-interpolation-filters="sRGB">
<feFlood flood-opacity="0" result="BackgroundImageFix"/>
<feColorMatrix in="SourceAlpha" type="matrix" values="0 0 0 0 0 0 0 0 0 0 0 0 0 0 0 0 0 0 127 0" result="hardAlpha"/>
<feOffset dy="-2"/>
<feGaussianBlur stdDeviation="2"/>
<feComposite in2="hardAlpha" operator="out"/>
<feColorMatrix type="matrix" values="0 0 0 0 0 0 0 0 0 0 0 0 0 0 0 0 0 0 0.25 0"/>
<feBlend mode="normal" in2="BackgroundImageFix" result="effect1_dropShadow_4_7"/>
<feBlend mode="normal" in="SourceGraphic" in2="effect1_dropShadow_4_7" result="shape"/>
</filter>
<clipPath id="clip0_4_7">
<rect width="184" height="372" fill="white"/>
</clipPath>
</defs>
</svg>
